<svg xmlns="http://www.w3.org/2000/svg" viewBox="0 0 24 24" role="img" aria-label="GitHub">
  <path
    d="M12 2.8C6.92 2.8 2.8 6.92 2.8 12C2.8 16.06 5.43 19.5 9.09 20.72C9.55 20.8 9.72 20.53 9.72 20.28C9.72 20.07 9.71 19.53 9.71 18.81C7.12 19.38 6.57 17.71 6.57 17.71C6.15 16.65 5.55 16.37 5.55 16.37C4.71 15.79 5.61 15.8 5.61 15.8C6.53 15.87 7.01 16.75 7.01 16.75C7.84 18.16 9.19 17.75 9.72 17.5C9.8 16.9 10.04 16.48 10.31 16.24C8.25 16 6.08 15.21 6.08 11.73C6.08 10.74 6.43 9.93 7.02 9.31C6.93 9.07 6.62 8.08 7.1 6.73C7.1 6.73 7.86 6.48 9.6 7.66C10.33 7.45 11.12 7.34 11.9 7.34C12.68 7.34 13.47 7.45 14.2 7.66C15.94 6.48 16.7 6.73 16.7 6.73C17.18 8.08 16.87 9.07 16.78 9.31C17.36 9.93 17.72 10.74 17.72 11.73C17.72 15.22 15.54 15.99 13.48 16.23C13.82 16.53 14.12 17.1 14.12 17.99C14.12 19.26 14.11 20.11 14.11 20.28C14.11 20.53 14.27 20.81 14.74 20.72C18.39 19.49 21.02 16.06 21.02 12C21.02 6.92 16.9 2.8 11.82 2.8H12Z"
    fill="#dbff2d"
  />
</svg>
